<?xml version="1.0" encoding="UTF-8" standalone="no"?>
<svg
   xmlns:dc="http://purl.org/dc/elements/1.1/"
   xmlns:cc="http://creativecommons.org/ns#"
   xmlns:rdf="http://www.w3.org/1999/02/22-rdf-syntax-ns#"
   xmlns:svg="http://www.w3.org/2000/svg"
   xmlns="http://www.w3.org/2000/svg"
   xmlns:sodipodi="http://sodipodi.sourceforge.net/DTD/sodipodi-0.dtd"
   xmlns:inkscape="http://www.inkscape.org/namespaces/inkscape"
   width="24"
   height="24"
   viewBox="0 0 24 24"
   version="1.1"
   id="svg4"
   sodipodi:docname="iconmonstr-trash-can-10.svg"
   inkscape:version="0.92.4 (5da689c313, 2019-01-14)">
  <metadata
     id="metadata10">
    <rdf:RDF>
      <cc:Work
         rdf:about="">
        <dc:format>image/svg+xml</dc:format>
        <dc:type
           rdf:resource="http://purl.org/dc/dcmitype/StillImage" />
        <dc:title></dc:title>
      </cc:Work>
    </rdf:RDF>
  </metadata>
  <defs
     id="defs8" />
  <sodipodi:namedview
     pagecolor="#ffffff"
     bordercolor="#666666"
     borderopacity="1"
     objecttolerance="10"
     gridtolerance="10"
     guidetolerance="10"
     inkscape:pageopacity="0"
     inkscape:pageshadow="2"
     inkscape:window-width="1920"
     inkscape:window-height="1137"
     id="namedview6"
     showgrid="false"
     inkscape:zoom="9.8333333"
     inkscape:cx="12"
     inkscape:cy="12"
     inkscape:window-x="-8"
     inkscape:window-y="-8"
     inkscape:window-maximized="1"
     inkscape:current-layer="svg4" />
  <path
     d="M16 9v4.501c-.748.313-1.424.765-2 1.319v-5.82c0-.552.447-1 1-1s1 .448 1 1zm-4 0v10c0 .552-.447 1-1 1s-1-.448-1-1v-10c0-.552.447-1 1-1s1 .448 1 1zm1.82 15h-11.82v-18h2v16h8.502c.312.749.765 1.424 1.318 2zm-6.82-16c.553 0 1 .448 1 1v10c0 .552-.447 1-1 1s-1-.448-1-1v-10c0-.552.447-1 1-1zm14-4h-20v-2h5.711c.9 0 1.631-1.099 1.631-2h5.316c0 .901.73 2 1.631 2h5.711v2zm-1 2v7.182c-.482-.115-.983-.182-1.5-.182l-.5.025v-7.025h2zm3 13.5c0 2.485-2.017 4.5-4.5 4.5s-4.5-2.015-4.5-4.5 2.017-4.5 4.5-4.5 4.5 2.015 4.5 4.5zm-3.086-2.122l-1.414 1.414-1.414-1.414-.707.708 1.414 1.414-1.414 1.414.707.708 1.414-1.414 1.414 1.414.708-.708-1.414-1.414 1.414-1.414-.708-.708z"
     id="path2"
     style="fill:#f4433f;fill-opacity:0.94117647" />
</svg>
