<?xml version="1.0" standalone="no"?>
<svg version="1.1" id="downloadSvg" xmlns="http://www.w3.org/2000/svg" xmlns:xlink="http://www.w3.org/1999/xlink" x="0px" y="0px" viewBox="0 0 1200 1200" enable-background="new 0 0 1200 1200" xml:space="preserve" height="512" width="512">
<path fill="#0A4866" d="M189.515,51.37c-7.187,6.671-7.094,23.423-8.605,32.826c-3.993,24.865-8.725,49.308-10.093,74.549&#xA;&#9;c-1.179,21.743-0.867,43.517-0.132,65.27c1.774,52.54,9.21,105.016,22.065,155.973c3.862,15.308,8.274,30.44,12.562,45.63&#xA;&#9;c8.022,28.419,18.62,55.993,26.97,84.277c6.08,20.595,12.632,41.092,19.343,61.488c2.24,6.808,6.555,16.244,5.822,23.589&#xA;&#9;c-0.584,5.852-2.971,11.55-6.771,15.984c-4.645,5.421-13.348,4.787-19.573,7.922c-17.936,9.031-28.804,28.218-35.514,46.459&#xA;&#9;c-7.457,20.272-10.466,40.106-7.558,61.482c2.924,21.485,7.311,43.247,13.119,64.108c2.25,8.08,5.042,15.865,8.629,23.447&#xA;&#9;c4.848,10.248,8.726,21.39,17.218,29.305c7.231,6.74,16.958,10.758,26.077,14.029c11.942,4.284,22.464,6.641,35.315,5.744&#xA;&#9;c7.624-0.532,15.027-0.999,22.485-2.732c8.579-1.994,18.174-6.867,26.416-1.782c3.396,2.095,10.877,10.517,11.99,14.477&#xA;&#9;c1.318,4.687-0.638,12.155-1.284,16.798c-1.188,8.536-2.412,17.554-5.308,25.689c-2.408,6.764-7.834,12.533-11.315,18.824&#xA;&#9;c-3.697,6.68-2.565,11.932-3.838,18.956c-0.59,3.256,1.1,2.233-2.571,3.471c-3.706,1.25-8.738,1.182-12.619,1.792&#xA;&#9;c-5.327,0.837-10.616,1.86-15.911,2.88c-10.238,1.972-20.759,3.754-30.511,7.492c-7.481,2.868-14.787,5.367-17.881,13.592&#xA;&#9;c-4.309,11.454,6.478,22.721,13.908,30.045c0.917,0.904,4.81,3.342,5.055,4.443c0.134,0.606-0.983,1.93-1.172,2.661&#xA;&#9;c-0.314,1.213-1.092,2.483-1.642,3.604c-1.808,3.686-3.995,7.107-6.329,10.484c-4.541,6.571-9.407,12.843-15.314,18.244&#xA;&#9;c-3.233,2.956-20.104,13.401-10.431,16.038c6.315,1.722,15.17,0.001,21.388-1.607c6.194-1.602,12.272-3.911,18.152-6.399&#xA;&#9;c4.746-2.008,13.497-5.079,16.783-9.492c-0.048,0.212-0.095,0.424-0.143,0.636c4.333-3.016,16.09-14.452,20.755-13.833&#xA;&#9;c1.516,0.201,4.384,2.07,5.703,2.686c4.678,2.183,9.389,4.246,14.174,6.184c6.131,2.484,12.329,4.722,18.594,6.835&#xA;&#9;c11.294,3.809,22.655,7.206,34.125,10.432c31.424,8.838,62.009,20.146,93.696,28.146c24.86,6.276,49.735,12.712,74.817,18.057&#xA;&#9;c18.891,4.026,38.092,6.455,57.104,9.79c48.823,8.565,97.911,17.266,147.16,22.91c26.013,2.981,51.903,3.917,78.043,4.97&#xA;&#9;c23.605,0.952,47.326,3.106,70.975,1.896c26.912-1.378,56.358-3.424,81.435-13.827c20.157-8.361,63.501-31.469,36.456-56.453&#xA;&#9;c-9.019-8.332-22.238-13.686-33.59-17.956c-11.386-4.282-23.139-7.288-34.885-10.375c-23.523-6.183-47.11-12.269-70.953-17.1&#xA;&#9;c-28.957-5.868-58.507-9.107-87.579-14.508c-20.086-3.731-40.145-8.001-59.982-12.704c-10.88-2.58-21.729-5.283-32.586-7.959&#xA;&#9;c-5.46-1.346-6.037-1.997-8.793-7.007c-1.793-3.259-3.488-6.614-5.722-9.603c-3.535-4.729-8.402-8.044-12.214-12.498&#xA;&#9;c-4.291-5.015-7.452-10.649-10.533-16.471c-4.598-8.689-9.447-17.229-13.927-25.98c-16.903-33.01-34.995-65.367-52.981-97.791&#xA;&#9;c-18.074-32.583-33.725-66.555-51.883-99.041c5.891,2.921,12.423,4.326,18.431,7.062c3.548,1.615,9.761,6.57,14.01,5.095&#xA;&#9;c9.598-3.333-6.553-17.423-9.478-20.25c-5.754-5.563-12.174-10.315-18.068-15.73c-6.623-6.085-11.64-13.634-16.926-20.839&#xA;&#9;c-7.13-9.717-13.986-21.035-19.14-31.965c-0.929-1.969-4.054-6.716-3.773-8.834c0.178-1.351,2.999-3.878,3.769-4.947&#xA;&#9;c1.844-2.559,3.688-5.145,5.377-7.809c4.539-7.156,13.111-21.236,3.105-26.751c-6.771-3.732-13.087-1.892-20.315-2.991&#xA;&#9;c-5.218-0.793-10.885-1.791-15.851,0.755c0.137-0.154,0.274-0.307,0.411-0.461c-7.742,0.92-9.499-1.411-13.294-8.026&#xA;&#9;c-2.556-4.456-4.711-9.115-6.823-13.793c-6.11-13.53-13.715-26.615-20.748-39.716c-13.513-25.17-26.116-50.882-38.668-76.547&#xA;&#9;c-11.658-23.837-24.116-47.107-36.151-70.729c-21.868-42.926-41.025-87.349-64.164-129.625c0.176,0.044,0.353,0.088,0.529,0.132&#xA;&#9;c-7.004-15.198-13.975-30.435-21.383-45.44c-16.776-33.977-34.825-67.419-52.87-100.742c-7.595-14.025-14.909-28.153-22.72-42.063&#xA;&#9;C207.358,69.721,197.369,43.808,189.515,51.37z M414.944,518.161c-7.536,3.119-15.445,5.972-22.59,9.852&#xA;&#9;c-4.8-30.356-9.31-62.501-20.513-91.291c14.733,25.117,26.697,51.787,40.602,77.388C413.276,515.46,414.11,516.81,414.944,518.161z&#xA;&#9; M514.099,618.562c-2.728,3.511-13.497,22.198-18.84,14.506c-1.077-1.551,1.591-6.401,3.16-8.487&#xA;&#9;c3.258-4.33,7.43-3.601,11.683-5.883c-0.517,0.623-0.015,0.234,0.358,0.357C511.673,618.899,512.887,618.734,514.099,618.562z&#xA;&#9; M539.872,718.466c-1.354-2.449-2.678-4.917-3.978-7.395c-4.2-8.008-8.494-15.966-12.624-24.009&#xA;&#9;c-3.196-6.225-6.422-12.431-9.587-18.673c-1.706-3.365-3.498-6.679-5.388-9.945c-0.889-1.537-3.642-4.511-3.567-5.912&#xA;&#9;c0.074-1.381,1.893-2.468,2.594-4.055c8.343,20.247,21.409,41.276,36.297,57.356c10.125,10.936,25.544,18.782,32.518,32.219&#xA;&#9;c-4.235-1.372-8.183-3.952-12.258-5.756c-4.53-2.006-9.302-3.114-13.875-4.954C544.397,724.954,542.648,723.487,539.872,718.466z&#xA;&#9; M613.539,912.296c-3.143-2.026-6.377-3.88-9.615-5.747c-3.354-1.933-6.68-3.911-10.009-5.886&#xA;&#9;c-11.387-6.757-22.813-13.298-34.467-19.58c-8.588-4.63-17.057-9.465-25.605-14.165c-6.485-3.566-13.505-8.376-20.714-10.054&#xA;&#9;c11.167-5.036,22.09-10.586,33.222-15.696c9.31-4.273,19.387-8.036,28.225-13.195c14.59,29.009,28.401,58.466,43.749,87.061&#xA;&#9;C618.858,916.751,614.285,912.777,613.539,912.296z M629.635,942.588c-25.752-5.289-50.769-11.992-75.882-19.508&#xA;&#9;c-15.903-4.76-31.848-9.32-47.696-14.273c-7.08-2.213-14.091-4.656-21.192-6.801c-5.595-1.69-7.38-6.932-11.322-11.025&#xA;&#9;c0.173-0.006,0.345-0.012,0.518-0.017c-2.714-4.253-5.522-9.53-9.508-12.686c7.413-3.573,14.83-7.104,22.434-10.251&#xA;&#9;c2.196-0.908,4.391-1.816,6.587-2.725c1.39-0.575,2.804-1.355,4.24-1.764c3.628-1.034,5.172,0.086,8.649,1.783&#xA;&#9;c23.522,11.482,46.912,23.066,70.134,35.13c10.066,5.23,20.096,10.491,29.8,16.381c5.331,3.236,13.607,6.769,18.031,11.284&#xA;&#9;c2.996,3.057,4.281,8.691,4.689,12.973C629.29,941.59,629.462,942.089,629.635,942.588z M455.452,862.778&#xA;&#9;c-3.647,1.064-2.139,1.332-5.201-0.992c-0.506-0.384-0.98-0.973-1.43-1.435c-2.353-2.409-4.568-4.867-6.701-7.475&#xA;&#9;c-4.447-5.436-9.363-15.323-15.489-19.07c10.661,4.272,21.47,7.944,32.275,11.814c3.539,1.268,16.006,7.897,19.883,6.996&#xA;&#9;C471.518,856.079,463.214,860.513,455.452,862.778z M521.667,952.116c24.52,9.413,48.932,19.198,73.183,29.271&#xA;&#9;c-10.578-1.452-21.178-2.716-31.774-4.059c-4.95-0.628-9.846-1.702-14.805-2.19c-4.736-0.465-3.384-1.262-5.733-5.615&#xA;&#9;c-1.724-3.195-4.976-5.567-8.182-7.142c-4.655-2.288-7.437-3.593-10.534-8.086C523.303,953.37,522.584,952.644,521.667,952.116z&#xA;&#9; M495.624,920.826c-0.795-0.702-1.481-1.543-2.285-2.247c18.251,5.752,36.529,11.377,55.003,16.386&#xA;&#9;c20.222,5.483,40.6,10.429,61.016,15.135c6.19,1.427,14.611,1.936,20.371,4.644c2.63,1.237,2.682,0.81,2.503,4.759&#xA;&#9;c-0.163,3.601-1.189,7.086-1.587,10.663c-0.154,1.39,0.417,11.211-1.008,11.789c-2.204,0.893-14.698-6.209-17.15-7.217&#xA;&#9;c-20.436-8.397-41.187-16.016-61.683-24.261c-11.792-4.743-23.653-9.304-35.288-14.425c-3.719-1.637-8.822-2.978-11.843-5.631&#xA;&#9;C500.617,927.738,498.416,923.793,495.624,920.826z M368.261,922.909c0.106,0.189,0.211,0.378,0.317,0.566&#xA;&#9;c1.359-5.754,3.31-11.45,4.96-17.135c1.553-5.352,4.563-10.625,5.93-15.972c11.482,7.035,23.543,12.694,35.922,18.228&#xA;&#9;c7.882,3.524,15.85,6.879,24.046,9.61c7.06,2.353,15.083,4.844,20.4,10.206c7.207,7.269,15.96,13.524,21.754,22&#xA;&#9;c2.897,4.237,3.036,6.548,1.447,11.501c-0.259,0.808-1.33,4.486-1.868,4.889c-2.657,1.989-15.762-1.364-19.485-1.786&#xA;&#9;c-5.807-0.659-11.614-1.322-17.417-2.018c-8.402-1.008-16.774-2.21-25.161-3.331c-7.213-0.964-14.434-1.937-21.685-2.572&#xA;&#9;c-9.942-0.871-22.048-2.885-31.805-1.045c-1.299-10.288,0.672-21.388,2.686-31.47C368.287,924.022,368.274,923.465,368.261,922.909z&#xA;&#9; M366.148,789.355c0.386-2.115,5.101-6.055,7.224-8.222c4.351-4.438,8.805-8.764,13.251-13.106&#xA;&#9;c18.291-17.861,35.323-37.109,53.213-55.393c11.525-11.778,23.192-23.448,34.531-35.403c5.051-5.326,11.202-10.461,15.467-16.42&#xA;&#9;c6.54,14.159,13.586,28.067,19.846,42.371c7.776,17.768,16.552,35.001,25.112,52.4c4.428,9,9.217,18.008,14.438,26.579&#xA;&#9;c3.033,4.978,6.176,9.887,8.78,15.113c1.964,3.94,3.211,10.22,6.531,13.026c-12.353,7.502-25.593,13.491-38.324,20.313&#xA;&#9;c-7.366,3.948-14.962,7.324-22.574,10.77c-2.839,1.285-7.001,4.196-9.949,4.608c-2.42,0.338-2.334,0.009-5.106-1.227&#xA;&#9;c-14.412-6.426-29.607-12.258-44.634-17.16c-8.477-2.765-20.02-3.956-27.756-8.718c-4.569-2.812-8.655-8.591-12.837-12.021&#xA;&#9;c-1.996-1.638-3.991-3.182-6.184-4.554C387.328,796.147,376.843,793.404,366.148,789.355z M391.754,696.794&#xA;&#9;c1.413-1.802,4.258-3.216,5.961-4.733c3.436-3.06,5.272-6.697,7.971-10.206c1.952-2.539,4.729-4.282,7.64-6.291&#xA;&#9;c13.308-9.186,26.256-18.535,39.063-28.393c6.931-5.335,16.287-11.426,21.504-18.546c3.27,6.175,6.536,12.351,9.647,18.607&#xA;&#9;c1.377,2.962-13.36,15.777-16.118,18.65c-4.517,4.704-9.111,9.33-13.697,13.967c-12.176,12.309-24.351,24.622-36.559,36.9&#xA;&#9;c-13.519,13.596-27.575,26.617-40.992,40.311c4.999-16.834,9.55-33.592,13.061-50.795&#xA;&#9;C389.832,703.338,389.978,699.058,391.754,696.794z M402.787,615.845c0.041-1.005-1.297-61.94-5.844-61.368&#xA;&#9;c6.299-2.111,12.544-4.387,18.795-6.633c2.814-1.011,10.761-5.113,12.975-3.653c1.206,0.795,2.096,4.015,2.753,5.271&#xA;&#9;c10.534,20.132,23.001,39.537,32.852,59.982c1.147,2.38,4.063,6.53,3.382,8.606c-0.629,1.914-4.567,4.77-6.169,6.27&#xA;&#9;c-7.904,7.399-17.504,12.719-26.547,18.564c-13.142,8.495-25.697,17.827-39.134,25.872&#xA;&#9;C400.097,651.758,401.983,633.331,402.787,615.845z M342.789,754.316c1.224-0.845,3.22-1.045,4.699-1.574&#xA;&#9;c8.52-3.046,12.746-7.742,15.261-16.379c1.336-4.591,2.404-9.039,5.004-13.153c1.724-2.729,5.09-4.965,6.294-7.938&#xA;&#9;c-4.483,23.704-13.054,46.568-21.589,69.032c-2.576-1.128-5.419-1.897-7.87-3.263c-2.556-1.425-2.998-3.174-5.016-5.159&#xA;&#9;c0.189,0.104,0.377,0.207,0.566,0.311c-1.181-3.478-0.645-7.857-0.421-11.436C339.938,761.037,339.647,756.484,342.789,754.316z&#xA;&#9; M383.628,583.616c0.613-7.549,2.449-18.636,0.002-25.838c0.374-0.278,1.365-0.71,1.8-0.863c6.696,26.292,4.706,53.54,1.809,80.258&#xA;&#9;c-0.626,5.775-1.339,11.535-2.312,17.263c-0.475,2.793-1.337,11.921-3.481,13.634c-1.698,1.356-6.309,1.407-8.445,1.929&#xA;&#9;c-3.04,0.743-6.132,1.573-8.904,3.057C377.278,644.755,381.212,614.421,383.628,583.616z M326.716,666.306&#xA;&#9;c-0.731-8.505-1.587-16.996-2.477-25.486c-0.291-2.782-1.189-5.848-0.997-8.621c0.072-1.046-0.408-1.727-0.057-2.589&#xA;&#9;c0.706-1.73,3.7-3.476,4.8-5.246c2.677-4.309,4.962-9.362,7.303-13.891c2.409-4.659,2.813-9.227,2.029-14.32&#xA;&#9;c-0.924-6.008-2.948-15.153-6.812-19.484c5.583-1.483,14.062-3.656,18.68-7.511c1.218,0.99,10.075-3.128,12.627-3.993&#xA;&#9;c4.606-1.562,9.229-3.008,13.687-4.957c0.465,13.504-0.27,27.053-1.592,40.496c-1.845,18.764-5.77,36.842-10.953,54.945&#xA;&#9;c-1.094,3.818-2.252,7.58-3.54,11.337c-1.229,3.582-2.141,9.458-4.673,12.006c-2.417,2.431-6.278,2.764-9.496,2.961&#xA;&#9;c-5.753,0.353-11.245,0.793-16.911,1.977C327.8,678.056,327.196,672.187,326.716,666.306z M293.218,657.699&#xA;&#9;c2.423-1.475,1.113-4.19,2.547-5.468c0.929-0.828,8.085-0.127,6.995-4.095c2.331,1.015,4.638,2.306,7.074,1.019&#xA;&#9;c4.368-2.307,2.928-10.223,5.157-14.317c1.602,16.643,2.535,33.426,4.559,50.024c-9.65,0.796-17.632,2.824-25.627-4.636&#xA;&#9;c-3.947-3.682-9.087-12.814-9.762-18.281C283.859,657.452,290.745,659.203,293.218,657.699z M318.08,517.672&#xA;&#9;c-1.876-16.789-5.01-33.397-7.269-50.131c-4.128-30.58-6.322-61.279-8.806-92.025c-1.505-18.626-2.272-37.551-3.001-56.225&#xA;&#9;c-0.364-9.325-1.152-18.578-1.671-27.887c-0.338-6.053,0.637-13.129-0.98-19.006c12.529,19.394,23.434,38.687,32.65,59.845&#xA;&#9;c6.878,15.789,11.812,32.219,16.475,48.756c2.856,10.127,4.019,21.24,7.825,31.007c-0.145-0.063-0.292-0.125-0.437-0.188&#xA;&#9;c3.096,15.254,5.886,30.568,8.261,45.951c2.463,15.946,5.4,32.317,6.303,48.438c0.457,8.151,0.412,16.511,0.167,24.667&#xA;&#9;c-0.125,4.153,0.756,3.668-2.708,5.278c-2.44,1.134-5.678,1.516-8.31,2.256c-1.175,0.33-2.348,0.663-3.525,0.989&#xA;&#9;c-6.297,1.746-12.398,3.953-18.575,6.066c-3.907,1.336-8.726,2.214-12.267,4.247C320.361,539.093,319.423,528.359,318.08,517.672z&#xA;&#9; M199.51,115.057c0.034,0.371,2.412-6.343,4.123-6.393c2.675-0.077,5.76,10.811,6.594,13.23c3.167,9.186,5.537,18.654,7.631,28.139&#xA;&#9;c3.778,17.115,7.276,34.226,10.414,51.478c12.99,71.392,26.361,142.418,43.208,213.033c7.47,31.313,16.219,62.221,24.352,93.353&#xA;&#9;c3.109,11.901,5.875,23.916,8.425,35.949c0.488,2.304,3.552,10.447,2.705,12.537c-0.782,1.933-12.169,3.74-14.538,4.424&#xA;&#9;c-10.285,2.971-20.089,7.859-29.161,13.507c-4.96-30.097-11.393-60.114-18.279-89.831c-3.509-15.143-7.077-30.254-10.925-45.317&#xA;&#9;c-4.781-18.71-7.127-38.018-10.497-57.028c-5.168-29.151-10.661-58.252-16.192-87.336c-4.504-23.683-8.232-47.403-10.935-71.365&#xA;&#9;c-3.631-32.184-7.856-66.45,0.564-98.289C197.877,121.801,199.194,118.524,199.51,115.057z" style="fill: rgb(255, 255, 255);"/>
</svg>